<?xml version="1.0" encoding="utf-8"?>
<!-- Generator: Adobe Illustrator 16.0.0, SVG Export Plug-In . SVG Version: 6.00 Build 0)  -->
<!DOCTYPE svg PUBLIC "-//W3C//DTD SVG 1.1//EN" "http://www.w3.org/Graphics/SVG/1.1/DTD/svg11.dtd">
<svg version="1.1" xmlns="http://www.w3.org/2000/svg" xmlns:xlink="http://www.w3.org/1999/xlink" x="0px" y="0px"
	 width="716.964px" height="179.023px" viewBox="116.05 237.234 716.964 179.023"
	 enable-background="new 116.05 237.234 716.964 179.023" xml:space="preserve">
<g id="Layer_1">
	<g>
		<g>
			
				<linearGradient id="SVGID_1_" gradientUnits="userSpaceOnUse" x1="128.6331" y1="-326.6545" x2="225.9495" y2="-326.6545" gradientTransform="matrix(1.9711 0 0 1.9711 -123.0177 973.1403)">
				<stop  offset="0" style="stop-color:#A63E63"/>
				<stop  offset="1" style="stop-color:#E96D6D;stop-opacity:0.4"/>
			</linearGradient>
			<path fill="url(#SVGID_1_)" d="M212.166,251.629v24.038c27.643,2.042,49.518,25.238,49.518,53.483
				c0,29.566-24.038,53.725-53.723,53.725c-29.567,0-53.726-24.038-53.726-53.725c0-28.243,21.874-51.441,49.519-53.483v-23.917
				c-40.864,2.163-73.435,36.056-73.435,77.521c0,42.786,34.854,77.642,77.642,77.642s77.64-34.855,77.64-77.642v-53.723h36.539
				v-23.919H212.166z"/>
		</g>
	</g>
	
		<linearGradient id="SVGID_2_" gradientUnits="userSpaceOnUse" x1="132.5842" y1="-474.6453" x2="169.4143" y2="-474.6453" gradientTransform="matrix(1.9711 0 0 1.9711 -89.5528 1264.8453)">
		<stop  offset="0" style="stop-color:#46A4BF"/>
		<stop  offset="1" style="stop-color:#65D1C0;stop-opacity:0.2"/>
	</linearGradient>
	<path fill="url(#SVGID_2_)" d="M171.783,329.272c0-20.071,16.225-36.298,36.297-36.298c20.072,0,36.299,16.227,36.299,36.298
		c0,20.069-16.225,36.297-36.299,36.297C188.008,365.569,171.783,349.342,171.783,329.272z"/>
</g>
<g id="Layer_4">
	<g>
		<path fill="#3D3D3D" d="M435.987,290.981c0-4.202-0.381-7.833-0.381-10.889h7.259c0,2.483,0.191,5.063,0.191,7.548h0.191
			c2.102-4.489,7.735-8.788,15.379-8.788c9.935,0,13.086,5.636,14.52,8.788c3.344-5.444,7.546-8.788,14.52-8.788
			c13.185,0,17.482,7.354,17.482,19.297v27.989h-7.642V298.53c0-6.402-2.293-12.61-11.176-12.61
			c-6.495,0-11.942,5.349-11.942,13.564v26.556h-7.642v-25.983c0-10.126-2.58-14.041-8.884-14.041
			c-9.935,0-14.234,7.163-14.234,17.672v22.448h-7.642V290.981L435.987,290.981z"/>
		<path fill="#3D3D3D" d="M519.86,290.981c0-4.202-0.381-7.833-0.381-10.889h7.259c0,2.483,0.191,5.063,0.191,7.548h0.191
			c2.101-4.489,7.739-8.788,15.381-8.788c12.132,0,17.48,7.642,17.48,18.818v28.468h-7.642v-27.707
			c0-7.642-3.346-12.512-10.509-12.512c-9.935,0-14.232,7.163-14.232,17.672v22.448h-7.644v-35.059H519.86z"/>
		<path fill="#3D3D3D" d="M575.262,280.09h7.642v46.044h-7.642V280.09z"/>
		<path fill="#3D3D3D" d="M646.239,264.139h-23.021v61.996h-8.31v-61.996h-23.021v-7.645h54.351V264.139L646.239,264.139z"/>
		<path fill="#3D3D3D" d="M645.571,290.981c0-4.202-0.386-7.833-0.386-10.889h7.262c0,2.483,0.193,5.063,0.193,7.548h0.191
			c2.102-4.489,7.737-8.788,15.379-8.788c0.957,0,2.104,0.096,3.152,0.477l-0.477,7.737c-1.242-0.383-2.771-0.574-4.109-0.574
			c-9.357,0-13.467,6.591-13.467,17.1v22.448h-7.644v-35.059H645.571z"/>
		<path fill="#3D3D3D" d="M679.58,286.015c4.677-4.776,11.652-7.069,18.34-7.069c13.564,0,19.296,6.495,19.296,19.485v19.68
			c0,2.676,0.283,5.637,0.668,7.929h-7.356c-0.477-2.101-0.477-4.968-0.477-6.878h-0.191c-3.059,4.682-8.216,8.026-15.189,8.026
			c-9.36,0-17.098-4.681-17.098-13.66c0-15.285,17.669-16.145,29.037-16.145h2.965v-1.242c0-6.689-4.207-10.126-11.367-10.126
			c-4.969,0-10.03,1.719-13.661,5.064L679.58,286.015z M701.835,303.972c-9.745,0-16.049,2.676-16.049,8.886
			c0,5.825,4.298,7.929,10.126,7.929c8.883,0,13.375-6.399,13.564-13.85v-2.965H701.835z"/>
		<path fill="#3D3D3D" d="M764.023,291.555c-3.25-3.915-6.974-5.636-11.657-5.636c-10.314,0-15.567,7.642-15.567,17.098
			c0,9.458,6.208,17.1,15.567,17.1c5.064,0,8.884-1.814,11.751-5.731l5.731,5.444c-4.392,5.157-10.697,7.354-17.384,7.354
			c-14.235,0-23.789-10.03-23.789-24.17c0-13.945,9.649-24.166,23.789-24.166c6.78,0,13.084,2.292,17.671,7.258L764.023,291.555z"/>
		<path fill="#3D3D3D" d="M778.735,251.72h7.639v48.623l20.922-20.251h10.889l-22.257,20.921l24.552,25.125h-11.271l-22.832-24.266
			v24.17h-7.639V251.72H778.735z"/>
	</g>
	
		<linearGradient id="SVGID_3_" gradientUnits="userSpaceOnUse" x1="290.6951" y1="539.7615" x2="296.3967" y2="539.7615" gradientTransform="matrix(2.279 0 0 -2.279 -89.9026 1489.8599)">
		<stop  offset="0" style="stop-color:#A63E63"/>
		<stop  offset="1" style="stop-color:#E96D6D"/>
	</linearGradient>
	<path fill="url(#SVGID_3_)" d="M579.084,253.25c3.633,0,6.5,2.961,6.5,6.495c0,3.727-2.773,6.495-6.5,6.495
		s-6.493-2.771-6.493-6.495C572.591,256.211,575.456,253.25,579.084,253.25z"/>
	<path fill="#3D3D3D" d="M387.651,254.681c-21.11,0-36.394,15.57-36.394,36.587c0,19.584,13.277,34.484,32.193,36.395v-7.74
		c-14.041-2.005-23.31-14.041-23.31-28.656c0-16.049,11.176-28.946,27.51-28.946c16.336,0,27.512,12.897,27.512,28.946
		c0,14.613-9.264,26.556-23.307,28.656v7.74c18.913-1.912,32.193-16.812,32.193-36.395
		C424.046,270.252,408.857,254.681,387.651,254.681z"/>
	<g>
		<path fill="#3D3D3D" d="M358.874,361.254h23.946v7.26h-16.082v7.26h14.872v7.259h-14.872v13.914h-7.864V361.254z"/>
		<path fill="#3D3D3D" d="M393.002,379.1c0-2.856,0.479-5.444,1.437-7.764c0.958-2.319,2.293-4.293,4.008-5.924
			c1.714-1.63,3.747-2.881,6.1-3.756c2.352-0.873,4.923-1.311,7.713-1.311c2.789,0,5.36,0.438,7.713,1.311
			c2.353,0.875,4.386,2.126,6.1,3.756c1.714,1.631,3.05,3.604,4.008,5.924s1.438,4.907,1.438,7.764s-0.479,5.444-1.438,7.764
			c-0.958,2.318-2.294,4.293-4.008,5.923c-1.714,1.631-3.747,2.883-6.1,3.756c-2.353,0.874-4.924,1.311-7.713,1.311
			c-2.79,0-5.361-0.437-7.713-1.311c-2.353-0.873-4.386-2.125-6.1-3.756c-1.714-1.63-3.05-3.604-4.008-5.923
			C393.481,384.545,393.002,381.957,393.002,379.1z M401.169,379.1c0,1.681,0.26,3.218,0.781,4.612
			c0.521,1.396,1.268,2.605,2.244,3.63c0.974,1.025,2.142,1.823,3.503,2.395c1.361,0.572,2.881,0.857,4.562,0.857
			c1.68,0,3.201-0.285,4.562-0.857c1.361-0.571,2.529-1.369,3.504-2.395c0.974-1.024,1.722-2.234,2.244-3.63
			c0.521-1.395,0.781-2.932,0.781-4.612c0-1.646-0.261-3.176-0.781-4.588c-0.521-1.411-1.27-2.629-2.244-3.655
			c-0.975-1.024-2.143-1.822-3.504-2.395c-1.361-0.57-2.882-0.856-4.562-0.856c-1.681,0-3.201,0.286-4.562,0.856
			c-1.361,0.572-2.529,1.37-3.503,2.395c-0.976,1.026-1.723,2.244-2.244,3.655C401.429,375.925,401.169,377.454,401.169,379.1z"/>
		<path fill="#3D3D3D" d="M443.314,361.254h13.812c1.815,0,3.537,0.177,5.168,0.529c1.629,0.354,3.058,0.941,4.284,1.765
			c1.227,0.824,2.201,1.934,2.925,3.327c0.722,1.396,1.083,3.135,1.083,5.218c0,2.521-0.655,4.663-1.966,6.428
			s-3.227,2.882-5.747,3.353l9.074,15.073h-9.427l-7.461-14.267h-3.882v14.267h-7.864V361.254z M451.178,376.025h4.638
			c0.706,0,1.453-0.025,2.243-0.076c0.79-0.05,1.504-0.201,2.143-0.453s1.168-0.646,1.588-1.185c0.42-0.537,0.631-1.294,0.631-2.269
			c0-0.908-0.186-1.63-0.555-2.168c-0.37-0.537-0.841-0.949-1.412-1.235c-0.571-0.285-1.227-0.479-1.966-0.58
			c-0.739-0.101-1.462-0.15-2.168-0.15h-5.142V376.025z"/>
		<path fill="#3D3D3D" d="M503.807,361.254h13.812c1.815,0,3.537,0.177,5.168,0.529c1.629,0.354,3.058,0.941,4.284,1.765
			c1.227,0.824,2.201,1.934,2.925,3.327c0.722,1.396,1.083,3.135,1.083,5.218c0,2.521-0.655,4.663-1.966,6.428
			s-3.227,2.882-5.747,3.353l9.074,15.073h-9.427l-7.461-14.267h-3.882v14.267h-7.864V361.254z M511.671,376.025h4.638
			c0.706,0,1.453-0.025,2.243-0.076c0.79-0.05,1.504-0.201,2.143-0.453s1.168-0.646,1.588-1.185c0.42-0.537,0.631-1.294,0.631-2.269
			c0-0.908-0.186-1.63-0.555-2.168c-0.37-0.537-0.841-0.949-1.412-1.235c-0.571-0.285-1.227-0.479-1.966-0.58
			c-0.739-0.101-1.462-0.15-2.168-0.15h-5.142V376.025z"/>
		<path fill="#3D3D3D" d="M543.23,361.254h24.248v7.26h-16.384v6.654h15.477v7.26h-15.477v7.259h17.291v7.26H543.23V361.254z"/>
		<path fill="#3D3D3D" d="M598.783,369.975c-0.64-0.807-1.505-1.402-2.597-1.789c-1.093-0.387-2.126-0.58-3.101-0.58
			c-0.571,0-1.159,0.067-1.765,0.201c-0.604,0.135-1.177,0.346-1.714,0.631c-0.538,0.285-0.975,0.664-1.311,1.134
			c-0.336,0.471-0.504,1.042-0.504,1.714c0,1.076,0.403,1.899,1.21,2.471s1.822,1.059,3.05,1.462
			c1.227,0.403,2.546,0.807,3.957,1.21c1.412,0.403,2.73,0.975,3.958,1.714c1.227,0.739,2.243,1.731,3.05,2.975
			s1.21,2.907,1.21,4.99c0,1.983-0.37,3.714-1.109,5.192c-0.739,1.479-1.739,2.706-2.999,3.681
			c-1.261,0.975-2.723,1.697-4.387,2.167c-1.663,0.471-3.42,0.706-5.268,0.706c-2.319,0-4.471-0.353-6.453-1.059
			c-1.983-0.706-3.831-1.848-5.545-3.428l5.596-6.15c0.807,1.076,1.822,1.907,3.05,2.495c1.227,0.589,2.495,0.883,3.807,0.883
			c0.638,0,1.285-0.076,1.94-0.228s1.243-0.378,1.765-0.681c0.521-0.302,0.94-0.688,1.26-1.159c0.319-0.47,0.479-1.024,0.479-1.663
			c0-1.075-0.412-1.924-1.235-2.546c-0.824-0.622-1.857-1.151-3.101-1.588s-2.588-0.874-4.033-1.312
			c-1.445-0.437-2.79-1.024-4.032-1.764c-1.244-0.739-2.277-1.715-3.101-2.925c-0.824-1.209-1.235-2.806-1.235-4.789
			c0-1.915,0.378-3.596,1.135-5.041c0.756-1.444,1.764-2.654,3.024-3.63c1.261-0.974,2.714-1.705,4.36-2.192
			s3.344-0.731,5.092-0.731c2.017,0,3.966,0.286,5.848,0.857s3.579,1.529,5.092,2.873L598.783,369.975z"/>
		<path fill="#3D3D3D" d="M616.83,361.254h24.248v7.26h-16.384v6.654h15.477v7.26h-15.477v7.259h17.291v7.26H616.83V361.254z"/>
		<path fill="#3D3D3D" d="M666.487,361.254h6.503l15.527,35.692h-8.873l-3.075-7.562h-13.863l-2.975,7.562h-8.671L666.487,361.254z
			 M669.511,371.639l-4.335,11.091h8.721L669.511,371.639z"/>
		<path fill="#3D3D3D" d="M698.548,361.254h13.812c1.815,0,3.537,0.177,5.168,0.529c1.629,0.354,3.058,0.941,4.284,1.765
			c1.227,0.824,2.201,1.934,2.925,3.327c0.722,1.396,1.083,3.135,1.083,5.218c0,2.521-0.655,4.663-1.966,6.428
			s-3.227,2.882-5.747,3.353l9.074,15.073h-9.427l-7.461-14.267h-3.882v14.267h-7.864V361.254z M706.412,376.025h4.638
			c0.706,0,1.453-0.025,2.243-0.076c0.79-0.05,1.504-0.201,2.143-0.453s1.168-0.646,1.588-1.185c0.42-0.537,0.631-1.294,0.631-2.269
			c0-0.908-0.186-1.63-0.555-2.168c-0.37-0.537-0.841-0.949-1.412-1.235c-0.571-0.285-1.227-0.479-1.966-0.58
			c-0.739-0.101-1.462-0.15-2.168-0.15h-5.142V376.025z"/>
		<path fill="#3D3D3D" d="M761.009,370.53c-0.773-0.94-1.723-1.664-2.849-2.168s-2.429-0.756-3.906-0.756
			c-1.479,0-2.849,0.286-4.109,0.856c-1.26,0.572-2.353,1.37-3.276,2.395c-0.925,1.026-1.647,2.244-2.168,3.655
			c-0.521,1.412-0.781,2.941-0.781,4.588c0,1.681,0.26,3.218,0.781,4.612c0.521,1.396,1.235,2.605,2.143,3.63
			c0.907,1.025,1.974,1.823,3.201,2.395c1.227,0.572,2.546,0.857,3.957,0.857c1.613,0,3.042-0.336,4.285-1.009
			c1.243-0.672,2.269-1.613,3.075-2.823l6.554,4.891c-1.513,2.117-3.428,3.68-5.747,4.688c-2.318,1.008-4.705,1.512-7.158,1.512
			c-2.79,0-5.361-0.437-7.713-1.311c-2.354-0.873-4.386-2.125-6.101-3.756c-1.714-1.63-3.05-3.604-4.008-5.923
			c-0.957-2.319-1.437-4.907-1.437-7.764s0.479-5.444,1.437-7.764c0.958-2.319,2.294-4.293,4.008-5.924
			c1.715-1.63,3.747-2.881,6.101-3.756c2.352-0.873,4.923-1.311,7.713-1.311c1.008,0,2.058,0.093,3.15,0.277
			c1.092,0.186,2.168,0.479,3.227,0.883s2.075,0.94,3.05,1.612c0.975,0.673,1.848,1.496,2.622,2.471L761.009,370.53z"/>
		<path fill="#3D3D3D" d="M778.653,361.254h7.864v13.31h15.274v-13.31h7.864v35.692h-7.864V381.52h-15.274v15.426h-7.864V361.254z"
			/>
	</g>
</g>
<g id="Layer_2">
	<linearGradient id="SVGID_4_" gradientUnits="userSpaceOnUse" x1="170.783" y1="329.2712" x2="245.3792" y2="329.2712">
		<stop  offset="0" style="stop-color:#65D1C0"/>
		<stop  offset="1" style="stop-color:#46A4BF"/>
	</linearGradient>
	<path fill="url(#SVGID_4_)" d="M208.08,366.569c-20.566,0-37.297-16.731-37.297-37.297c0-20.566,16.731-37.298,37.297-37.298
		c20.566,0,37.299,16.732,37.299,37.298C245.379,349.838,228.647,366.569,208.08,366.569z M208.08,293.974
		c-19.463,0-35.297,15.834-35.297,35.298c0,19.463,15.834,35.297,35.297,35.297c19.464,0,35.299-15.834,35.299-35.297
		C243.379,309.808,227.544,293.974,208.08,293.974z"/>
	<rect x="212.166" y="274.548" fill="#AF2553" width="73.436" height="2"/>
	<rect x="284.601" y="251.629" fill="#AF2553" width="2" height="23.919"/>
	<g>
		<path fill="#AF2553" d="M214.191,252.869c-0.818-0.065-1.639-0.116-2.464-0.155l0.094-1.998c0.846,0.04,1.688,0.093,2.527,0.159
			L214.191,252.869z"/>
		<path fill="#AF2553" d="M284.284,321.009c-0.171-1.592-0.394-3.197-0.664-4.771l1.972-0.338c0.277,1.615,0.506,3.262,0.681,4.896
			L284.284,321.009z M282.429,310.581c-0.389-1.552-0.832-3.11-1.318-4.633l1.905-0.607c0.499,1.562,0.954,3.162,1.353,4.754
			L282.429,310.581z M279.146,300.514c-0.597-1.476-1.252-2.956-1.947-4.401l1.803-0.866c0.713,1.483,1.385,3.003,1.998,4.518
			L279.146,300.514z M274.501,291.002c-0.801-1.386-1.655-2.763-2.538-4.093l1.666-1.106c0.906,1.364,1.782,2.777,2.604,4.199
			L274.501,291.002z M268.585,282.219c-0.984-1.263-2.019-2.51-3.078-3.707l1.498-1.325c1.086,1.228,2.148,2.507,3.158,3.802
			L268.585,282.219z M261.517,274.328c-1.147-1.116-2.344-2.209-3.558-3.251l1.303-1.518c1.245,1.068,2.473,2.19,3.649,3.335
			L261.517,274.328z M253.433,267.48c-1.288-0.947-2.624-1.866-3.971-2.732l1.081-1.683c1.383,0.889,2.753,1.832,4.074,2.803
			L253.433,267.48z M244.483,261.807c-1.41-0.762-2.86-1.488-4.311-2.158l0.839-1.815c1.489,0.688,2.977,1.432,4.423,2.214
			L244.483,261.807z M234.834,257.426c-1.504-0.56-3.042-1.078-4.57-1.539l0.578-1.915c1.569,0.474,3.146,1.005,4.69,1.58
			L234.834,257.426z M224.671,254.428c-1.564-0.345-3.157-0.644-4.735-0.889l0.307-1.977c1.62,0.251,3.254,0.559,4.859,0.912
			L224.671,254.428z"/>
		<path fill="#AF2553" d="M286.724,329.271h-2c0-0.826-0.013-1.648-0.039-2.468l1.999-0.064
			C286.711,327.58,286.724,328.424,286.724,329.271z"/>
	</g>
	<g>
		<path fill="#D6B396" d="M149.748,330.271h-2.988v-2h2.988V330.271z M143.772,330.271h-2.988v-2h2.988V330.271z M137.796,330.271
			h-2.988v-2h2.988V330.271z"/>
	</g>
	<g>
		<rect x="284.1" y="328.271" fill="#AF2553" width="1.5" height="2"/>
		<path fill="#AF2553" d="M281.112,330.271h-2.988v-2h2.988V330.271z M275.136,330.271h-2.988v-2h2.988V330.271z M269.16,330.271
			h-2.988v-2h2.988V330.271z"/>
		<rect x="261.684" y="328.271" fill="#AF2553" width="1.5" height="2"/>
	</g>
	<g>
		<rect x="206.961" y="382.875" fill="#AF2553" width="2" height="1.5"/>
		<path fill="#AF2553" d="M208.961,402.406h-2v-3.005h2V402.406z M208.961,396.395h-2v-3.005h2V396.395z M208.961,390.385h-2v-3.005
			h2V390.385z"/>
		<rect x="206.961" y="405.412" fill="#AF2553" width="2" height="1.5"/>
	</g>
	<g>
		<path fill="#D6B396" d="M172.332,393.191l-1.732-1l1.515-2.624l1.732,1L172.332,393.191z M175.362,387.943l-1.732-1l1.515-2.625
			l1.732,1L175.362,387.943z M178.391,382.694l-1.732-1l1.515-2.624l1.732,1L178.391,382.694z"/>
	</g>
	<g>
		<path fill="#D6B396" d="M178.045,279.247l-1.493-2.586l1.732-1l1.494,2.586L178.045,279.247z M175.058,274.074l-1.493-2.586
			l1.732-1l1.493,2.586L175.058,274.074z M172.071,268.901l-1.493-2.586l1.732-1l1.493,2.586L172.071,268.901z"/>
	</g>
	<g>
		<path fill="#D6B396" d="M157.036,300.957l-2.583-1.492l1-1.732l2.583,1.492L157.036,300.957z M151.87,297.973l-2.583-1.492
			l1-1.731l2.583,1.492L151.87,297.973z M146.704,294.991l-2.583-1.491l1-1.732l2.583,1.491L146.704,294.991z"/>
	</g>
	<g>
		
			<rect x="234.481" y="375.296" transform="matrix(0.5001 0.866 -0.866 0.5001 443.4706 -15.5824)" fill="#AF2553" width="1.5" height="2"/>
		<path fill="#AF2553" d="M243.831,393.193l-1.515-2.625l1.732-1l1.515,2.625L243.831,393.193z M240.802,387.944l-1.516-2.624
			l1.731-1l1.516,2.624L240.802,387.944z M237.77,382.695l-1.515-2.624l1.732-1l1.515,2.624L237.77,382.695z"/>
		
			<rect x="245.838" y="394.966" transform="matrix(0.5001 0.866 -0.866 0.5001 466.1821 -15.5833)" fill="#AF2553" width="1.5" height="2"/>
	</g>
	<g>
		
			<rect x="254.352" y="355.42" transform="matrix(0.866 0.5001 -0.5001 0.866 212.4175 -79.8027)" fill="#AF2553" width="1.5" height="2"/>
		<path fill="#AF2553" d="M271.001,366.753l-2.625-1.515l1-1.732l2.625,1.515L271.001,366.753z M265.751,363.722l-2.625-1.516
			l1-1.732l2.625,1.516L265.751,363.722z M260.501,360.692l-2.625-1.516l1-1.732l2.625,1.516L260.501,360.692z"/>
		
			<rect x="274.026" y="366.777" transform="matrix(0.866 0.5001 -0.5001 0.866 220.7334 -88.1188)" fill="#AF2553" width="1.5" height="2"/>
	</g>
	<g>
		<path fill="#D6B396" d="M145.161,366.753l-1-1.732l2.625-1.515l1,1.732L145.161,366.753z M150.41,363.722l-1-1.732l2.625-1.516
			l1,1.732L150.41,363.722z M155.659,360.692l-1-1.732l2.625-1.516l1,1.732L155.659,360.692z"/>
	</g>
	<g>
		<rect x="260.684" y="326.15" fill="#AF2553" width="2" height="3"/>
		<path fill="#AF2553" d="M262.684,319.656h-2v-6.494h2V319.656z M262.684,306.668h-2v-6.494h2V306.668z M262.684,293.679h-2v-6.494
			h2V293.679z M262.684,280.692h-2v-6.494h2V280.692z M262.684,267.703h-2v-6.494h2V267.703z"/>
		<rect x="260.684" y="251.715" fill="#AF2553" width="2" height="3"/>
	</g>
	<g>
		<g>
			<path fill="#AF2553" d="M207.961,407.912c-43.363,0-78.642-35.278-78.642-78.642c0-41.822,32.672-76.312,74.382-78.52
				l1.053-0.056v25.9l-0.926,0.068c-27.248,2.013-48.593,25.068-48.593,52.486c0,29.072,23.653,52.725,52.726,52.725
				c29.071,0,52.723-23.652,52.723-52.725c0-27.418-21.344-50.473-48.592-52.486l-0.926-0.068v-25.967H323.14v25.919h-36.539v52.723
				C286.601,372.634,251.323,407.912,207.961,407.912z M202.755,252.811c-40.142,2.671-71.435,36.054-71.435,76.459
				c0,42.261,34.381,76.642,76.642,76.642c42.259,0,76.64-34.381,76.64-76.642v-54.723h36.539v-21.919H213.166v22.117
				c27.843,2.537,49.518,26.256,49.518,54.404c0,30.175-24.548,54.725-54.723,54.725c-30.176,0-54.726-24.55-54.726-54.725
				c0-28.149,21.675-51.867,49.519-54.404V252.811z"/>
		</g>
	</g>
</g>
</svg>
