<?xml version="1.0" encoding="utf-8"?>
<!-- Generator: Adobe Illustrator 16.0.0, SVG Export Plug-In . SVG Version: 6.00 Build 0)  -->
<!DOCTYPE svg PUBLIC "-//W3C//DTD SVG 1.1//EN" "http://www.w3.org/Graphics/SVG/1.1/DTD/svg11.dtd">
<svg version="1.1" id="Layer_1" xmlns="http://www.w3.org/2000/svg" xmlns:xlink="http://www.w3.org/1999/xlink" x="0px" y="0px"
	 width="463.738px" height="111.745px" viewBox="69.796 31.5 463.738 111.745" enable-background="new 69.796 31.5 463.738 111.745"
	 xml:space="preserve">
<g>
	<g>
		
			<linearGradient id="SVGID_1_" gradientUnits="userSpaceOnUse" x1="123.707" y1="920.1406" x2="238.2705" y2="920.1406" gradientTransform="matrix(0.8649 0 0 -0.8649 -14.5804 883.3663)">
			<stop  offset="0" style="stop-color:#A63E63"/>
			<stop  offset="1" style="stop-color:#E96D6D"/>
		</linearGradient>
		<path fill="url(#SVGID_1_)" d="M134.583,47.431v12.417c14.279,1.055,25.579,13.037,25.579,27.627
			c0,15.273-12.417,27.752-27.751,27.752c-15.273,0-27.752-12.417-27.752-27.752c0-14.589,11.299-26.572,25.579-27.627V47.493
			c-21.108,1.117-37.933,18.625-37.933,40.044c0,22.102,18.004,40.106,40.106,40.106s40.106-18.004,40.106-40.106V59.786h18.874
			V47.431H134.583z"/>
	</g>
</g>
<linearGradient id="SVGID_2_" gradientUnits="userSpaceOnUse" x1="131.3672" y1="1068.1289" x2="174.7246" y2="1068.1289" gradientTransform="matrix(0.8649 0 0 -0.8649 0.1037 1011.3615)">
	<stop  offset="0" style="stop-color:#46A4BF"/>
	<stop  offset="1" style="stop-color:#65D1C0"/>
</linearGradient>
<path fill="url(#SVGID_2_)" d="M113.723,87.537c0-10.368,8.381-18.75,18.75-18.75c10.368,0,18.75,8.382,18.75,18.75
	c0,10.367-8.381,18.749-18.75,18.749C122.104,106.286,113.723,97.904,113.723,87.537z"/>
<g>
	<path fill="#3D3D3D" d="M242.573,59.087c0-1.42-0.129-2.647-0.129-3.681h2.454c0,0.84,0.065,1.712,0.065,2.551h0.065
		c0.71-1.518,2.615-2.971,5.198-2.971c3.358,0,4.424,1.905,4.908,2.971c1.13-1.84,2.551-2.971,4.908-2.971
		c4.457,0,5.909,2.486,5.909,6.522v9.461h-2.583v-9.332c0-2.164-0.775-4.262-3.778-4.262c-2.196,0-4.037,1.808-4.037,4.585v8.977
		h-2.583v-8.783c0-3.423-0.872-4.747-3.003-4.747c-3.358,0-4.812,2.421-4.812,5.973v7.588h-2.583V59.087L242.573,59.087z"/>
	<path fill="#3D3D3D" d="M270.923,59.087c0-1.42-0.129-2.647-0.129-3.681h2.454c0,0.84,0.065,1.712,0.065,2.551h0.064
		c0.71-1.518,2.616-2.971,5.199-2.971c4.101,0,5.909,2.583,5.909,6.361v9.623h-2.583v-9.364c0-2.583-1.131-4.229-3.552-4.229
		c-3.358,0-4.811,2.421-4.811,5.974v7.588h-2.583V59.087H270.923z"/>
	<path fill="#3D3D3D" d="M289.651,55.406h2.583V70.97h-2.583V55.406z"/>
	<path fill="#3D3D3D" d="M313.643,50.014h-7.782V70.97h-2.809V50.014h-7.781v-2.583h18.372V50.014L313.643,50.014z"/>
	<path fill="#3D3D3D" d="M313.417,59.087c0-1.42-0.13-2.647-0.13-3.681h2.454c0,0.84,0.065,1.712,0.065,2.551h0.064
		c0.71-1.518,2.615-2.971,5.198-2.971c0.323,0,0.711,0.032,1.065,0.161l-0.161,2.616c-0.42-0.129-0.937-0.194-1.389-0.194
		c-3.163,0-4.552,2.228-4.552,5.78v7.588h-2.584V59.087H313.417z"/>
	<path fill="#3D3D3D" d="M324.913,57.409c1.581-1.615,3.938-2.39,6.199-2.39c4.585,0,6.522,2.196,6.522,6.587v6.652
		c0,0.904,0.096,1.905,0.226,2.68h-2.486c-0.161-0.71-0.161-1.679-0.161-2.325h-0.064c-1.034,1.583-2.777,2.713-5.135,2.713
		c-3.164,0-5.779-1.583-5.779-4.618c0-5.167,5.973-5.457,9.815-5.457h1.002v-0.419c0-2.261-1.422-3.423-3.843-3.423
		c-1.68,0-3.391,0.581-4.617,1.711L324.913,57.409z M332.436,63.479c-3.294,0-5.425,0.905-5.425,3.003
		c0,1.969,1.453,2.68,3.423,2.68c3.003,0,4.521-2.164,4.585-4.682v-1.002H332.436z"/>
	<path fill="#3D3D3D" d="M353.457,59.281c-1.099-1.324-2.357-1.905-3.94-1.905c-3.486,0-5.263,2.583-5.263,5.779
		c0,3.197,2.099,5.78,5.263,5.78c1.712,0,3.003-0.613,3.972-1.938l1.938,1.84c-1.484,1.744-3.616,2.486-5.876,2.486
		c-4.812,0-8.041-3.39-8.041-8.169c0-4.714,3.262-8.169,8.041-8.169c2.292,0,4.423,0.775,5.974,2.454L353.457,59.281z"/>
	<path fill="#3D3D3D" d="M358.43,45.816h2.582v16.436l7.072-6.846h3.681l-7.523,7.072l8.299,8.492h-3.811l-7.718-8.202v8.169h-2.582
		V45.816z"/>
</g>
<linearGradient id="SVGID_3_" gradientUnits="userSpaceOnUse" x1="288.748" y1="48.5288" x2="293.1396" y2="48.5288">
	<stop  offset="0" style="stop-color:#A63E63"/>
	<stop  offset="1" style="stop-color:#E96D6D"/>
</linearGradient>
<path fill="url(#SVGID_3_)" d="M290.943,46.333c1.228,0,2.197,1.001,2.197,2.196c0,1.259-0.938,2.196-2.197,2.196
	s-2.195-0.937-2.195-2.196C288.748,47.334,289.717,46.333,290.943,46.333z"/>
<path fill="#3D3D3D" d="M226.234,46.817c-7.136,0-12.302,5.263-12.302,12.367c0,6.62,4.488,11.656,10.882,12.302v-2.616
	c-4.747-0.678-7.879-4.747-7.879-9.687c0-5.425,3.778-9.784,9.299-9.784c5.522,0,9.3,4.359,9.3,9.784
	c0,4.94-3.132,8.976-7.879,9.687v2.616c6.394-0.646,10.882-5.683,10.882-12.302C238.537,52.081,233.402,46.817,226.234,46.817z"/>
<g>
	<path fill="#3D3D3D" d="M253.316,112.369c0,1.146,0.25,2.189,0.748,3.132c0.499,0.942,1.155,1.746,1.968,2.412
		c0.812,0.665,1.755,1.183,2.828,1.552c1.071,0.37,2.18,0.554,3.326,0.554c1.552,0,2.901-0.36,4.047-1.081
		c1.145-0.721,2.198-1.672,3.16-2.855l3.77,2.883c-2.772,3.585-6.653,5.377-11.642,5.377c-2.07,0-3.946-0.352-5.627-1.053
		c-1.682-0.702-3.104-1.672-4.269-2.911c-1.165-1.238-2.061-2.697-2.689-4.379c-0.629-1.682-0.942-3.501-0.942-5.461
		c0-1.959,0.341-3.779,1.025-5.461c0.684-1.682,1.626-3.141,2.828-4.38c1.201-1.238,2.633-2.208,4.296-2.911
		c1.663-0.702,3.474-1.053,5.433-1.053c2.329,0,4.297,0.407,5.904,1.22c1.608,0.813,2.929,1.876,3.964,3.188
		c1.034,1.312,1.783,2.792,2.245,4.436c0.462,1.645,0.693,3.317,0.693,5.017v1.774H253.316z M269.061,108.377
		c-0.037-1.109-0.213-2.125-0.526-3.049c-0.314-0.923-0.786-1.728-1.414-2.412c-0.629-0.684-1.414-1.22-2.356-1.608
		s-2.042-0.582-3.299-0.582c-1.22,0-2.338,0.231-3.354,0.693c-1.017,0.463-1.876,1.063-2.578,1.802
		c-0.703,0.74-1.247,1.562-1.635,2.467c-0.388,0.906-0.582,1.802-0.582,2.689H269.061z"/>
	<path fill="#3D3D3D" d="M294.342,103.997c-0.592-0.739-1.322-1.358-2.19-1.857s-1.932-0.749-3.188-0.749
		c-1.184,0-2.209,0.25-3.077,0.749c-0.869,0.499-1.303,1.229-1.303,2.19c0,0.776,0.25,1.405,0.749,1.885
		c0.499,0.481,1.09,0.869,1.774,1.165c0.684,0.296,1.413,0.518,2.19,0.665c0.775,0.148,1.441,0.277,1.995,0.388
		c1.071,0.259,2.079,0.574,3.021,0.942c0.942,0.37,1.755,0.851,2.439,1.441c0.684,0.592,1.22,1.312,1.608,2.163
		c0.388,0.851,0.582,1.885,0.582,3.104c0,1.479-0.314,2.744-0.943,3.797c-0.629,1.054-1.441,1.913-2.439,2.578
		c-0.998,0.666-2.134,1.146-3.409,1.441c-1.274,0.295-2.56,0.443-3.853,0.443c-2.182,0-4.094-0.333-5.738-0.998
		c-1.645-0.666-3.114-1.885-4.408-3.659l3.77-3.104c0.812,0.813,1.719,1.534,2.716,2.162c0.998,0.629,2.218,0.942,3.66,0.942
		c0.627,0,1.266-0.064,1.912-0.194c0.646-0.129,1.22-0.333,1.719-0.61c0.499-0.277,0.905-0.628,1.22-1.054
		c0.313-0.424,0.472-0.915,0.472-1.469c0-0.739-0.231-1.349-0.693-1.83c-0.463-0.48-1.018-0.859-1.663-1.137
		c-0.647-0.277-1.331-0.499-2.052-0.665c-0.721-0.167-1.357-0.305-1.912-0.416c-1.073-0.258-2.089-0.554-3.049-0.887
		c-0.962-0.333-1.812-0.776-2.55-1.331c-0.74-0.554-1.331-1.256-1.774-2.106c-0.443-0.85-0.665-1.903-0.665-3.16
		c0-1.367,0.286-2.559,0.859-3.576c0.573-1.016,1.331-1.857,2.273-2.523c0.942-0.665,2.014-1.164,3.215-1.497
		s2.412-0.499,3.631-0.499c1.775,0,3.475,0.333,5.102,0.998c1.625,0.665,2.919,1.774,3.881,3.326L294.342,103.997z"/>
	<path fill="#3D3D3D" d="M308.755,112.369c0,1.146,0.249,2.189,0.748,3.132c0.499,0.942,1.155,1.746,1.969,2.412
		c0.812,0.665,1.755,1.183,2.827,1.552c1.071,0.37,2.181,0.554,3.326,0.554c1.553,0,2.901-0.36,4.047-1.081s2.199-1.672,3.16-2.855
		l3.771,2.883c-2.772,3.585-6.653,5.377-11.643,5.377c-2.07,0-3.946-0.352-5.627-1.053c-1.683-0.702-3.105-1.672-4.27-2.911
		c-1.164-1.238-2.061-2.697-2.688-4.379c-0.629-1.682-0.942-3.501-0.942-5.461c0-1.959,0.341-3.779,1.025-5.461
		c0.684-1.682,1.626-3.141,2.827-4.38c1.201-1.238,2.634-2.208,4.297-2.911c1.663-0.702,3.474-1.053,5.434-1.053
		c2.328,0,4.296,0.407,5.904,1.22c1.607,0.813,2.929,1.876,3.964,3.188c1.034,1.312,1.782,2.792,2.245,4.436
		c0.462,1.645,0.693,3.317,0.693,5.017v1.774H308.755z M324.5,108.377c-0.037-1.109-0.214-2.125-0.527-3.049
		c-0.314-0.923-0.785-1.728-1.413-2.412c-0.629-0.684-1.414-1.22-2.356-1.608s-2.043-0.582-3.299-0.582
		c-1.22,0-2.338,0.231-3.354,0.693c-1.017,0.463-1.876,1.063-2.577,1.802c-0.703,0.74-1.248,1.562-1.636,2.467
		c-0.388,0.906-0.582,1.802-0.582,2.689H324.5z"/>
	<path fill="#3D3D3D" d="M335.921,100.615c1.404-1.293,3.03-2.264,4.879-2.911c1.848-0.646,3.695-0.97,5.544-0.97
		c1.921,0,3.576,0.241,4.962,0.721c1.386,0.481,2.522,1.128,3.409,1.94c0.888,0.813,1.543,1.746,1.969,2.8
		c0.424,1.053,0.637,2.153,0.637,3.298v13.417c0,0.924,0.019,1.774,0.056,2.55c0.036,0.776,0.092,1.516,0.167,2.218h-4.436
		c-0.111-1.331-0.166-2.661-0.166-3.992h-0.111c-1.108,1.701-2.421,2.902-3.937,3.604s-3.271,1.053-5.267,1.053
		c-1.22,0-2.384-0.166-3.492-0.499c-1.109-0.333-2.079-0.832-2.911-1.497c-0.832-0.665-1.488-1.487-1.968-2.467
		c-0.481-0.979-0.721-2.115-0.721-3.409c0-1.7,0.378-3.123,1.136-4.269c0.758-1.145,1.793-2.079,3.105-2.8
		c1.312-0.721,2.846-1.238,4.602-1.552c1.755-0.313,3.631-0.471,5.627-0.471h3.659v-1.109c0-0.665-0.13-1.331-0.389-1.996
		c-0.259-0.666-0.646-1.266-1.164-1.802c-0.518-0.535-1.164-0.96-1.94-1.275c-0.776-0.313-1.7-0.471-2.771-0.471
		c-0.962,0-1.802,0.093-2.522,0.277c-0.721,0.185-1.378,0.416-1.969,0.693c-0.592,0.277-1.128,0.601-1.607,0.97
		c-0.48,0.37-0.942,0.721-1.386,1.053L335.921,100.615z M350.003,111.038c-1.184,0-2.394,0.065-3.632,0.194
		c-1.238,0.13-2.365,0.379-3.382,0.749c-1.017,0.37-1.849,0.887-2.494,1.552c-0.647,0.665-0.971,1.516-0.971,2.55
		c0,1.516,0.508,2.605,1.524,3.271c1.017,0.665,2.393,0.998,4.131,0.998c1.366,0,2.531-0.23,3.492-0.693
		c0.961-0.461,1.737-1.062,2.329-1.802c0.591-0.739,1.016-1.561,1.274-2.467c0.259-0.905,0.389-1.802,0.389-2.689v-1.663H350.003z"
		/>
	<path fill="#3D3D3D" d="M364.582,97.399h4.99v4.047h0.11c0.333-0.702,0.776-1.339,1.331-1.913c0.555-0.573,1.173-1.062,1.857-1.469
		c0.683-0.406,1.432-0.729,2.245-0.97c0.812-0.24,1.626-0.36,2.439-0.36c0.812,0,1.552,0.111,2.218,0.333l-0.223,5.378
		c-0.406-0.111-0.812-0.203-1.219-0.277c-0.407-0.074-0.813-0.111-1.22-0.111c-2.439,0-4.307,0.684-5.6,2.051
		c-1.294,1.368-1.94,3.493-1.94,6.375v13.195h-4.99V97.399z"/>
	<path fill="#3D3D3D" d="M402.893,104.385c-0.925-0.961-1.895-1.691-2.911-2.19s-2.227-0.749-3.631-0.749
		c-1.368,0-2.56,0.25-3.576,0.749s-1.867,1.183-2.55,2.051c-0.685,0.869-1.202,1.867-1.553,2.994
		c-0.352,1.128-0.526,2.301-0.526,3.521s0.202,2.375,0.609,3.465c0.406,1.091,0.979,2.042,1.719,2.855s1.626,1.451,2.661,1.913
		c1.034,0.462,2.198,0.693,3.493,0.693c1.403,0,2.605-0.25,3.604-0.749s1.921-1.228,2.771-2.19l3.549,3.548
		c-1.295,1.441-2.8,2.477-4.519,3.104c-1.719,0.628-3.54,0.942-5.461,0.942c-2.033,0-3.891-0.333-5.572-0.998
		c-1.682-0.666-3.132-1.598-4.352-2.8c-1.22-1.201-2.162-2.642-2.827-4.324c-0.666-1.682-0.998-3.539-0.998-5.572
		c0-2.032,0.332-3.899,0.998-5.6c0.665-1.7,1.598-3.16,2.799-4.38s2.643-2.171,4.325-2.855c1.681-0.684,3.557-1.026,5.627-1.026
		c1.921,0,3.76,0.342,5.516,1.026c1.756,0.684,3.28,1.728,4.574,3.132L402.893,104.385z"/>
	<path fill="#3D3D3D" d="M410.819,81.766h4.99v19.681h0.11c0.628-1.404,1.719-2.541,3.271-3.41c1.552-0.868,3.345-1.303,5.378-1.303
		c1.256,0,2.467,0.194,3.631,0.582s2.181,0.989,3.049,1.802c0.868,0.813,1.562,1.857,2.079,3.132
		c0.518,1.275,0.776,2.782,0.776,4.519v16.909h-4.989v-15.523c0-1.219-0.167-2.263-0.499-3.132c-0.333-0.868-0.776-1.57-1.331-2.106
		c-0.554-0.536-1.191-0.923-1.912-1.165c-0.721-0.24-1.47-0.36-2.246-0.36c-1.035,0-1.995,0.167-2.883,0.499
		c-0.887,0.333-1.663,0.859-2.328,1.58s-1.184,1.636-1.553,2.744c-0.369,1.109-0.554,2.421-0.554,3.937v13.527h-4.99V81.766z"/>
	<path fill="#3D3D3D" d="M458.332,84.427h5.322v16.964h0.443l17.354-16.964h7.429l-18.961,18.129l20.235,21.123h-7.761
		l-18.296-19.626h-0.443v19.626h-5.322V84.427z"/>
	<path fill="#3D3D3D" d="M493.37,97.399h4.989v26.279h-4.989V97.399z"/>
	<path fill="#3D3D3D" d="M520.368,101.724h-7.151v11.919c0,0.74,0.018,1.469,0.056,2.19c0.036,0.721,0.175,1.368,0.415,1.94
		c0.24,0.573,0.61,1.035,1.109,1.386c0.499,0.352,1.229,0.527,2.189,0.527c0.591,0,1.201-0.056,1.83-0.167
		c0.628-0.111,1.2-0.313,1.718-0.61v4.546c-0.591,0.333-1.357,0.563-2.301,0.693c-0.942,0.129-1.672,0.194-2.189,0.194
		c-1.922,0-3.409-0.268-4.463-0.804c-1.054-0.535-1.829-1.229-2.328-2.079c-0.499-0.85-0.796-1.802-0.888-2.855
		c-0.093-1.053-0.139-2.115-0.139-3.188v-13.693h-5.766v-4.325h5.766v-7.374h4.99v7.374h7.151V101.724z"/>
</g>
<linearGradient id="SVGID_4_" gradientUnits="userSpaceOnUse" x1="492.2061" y1="87.9746" x2="499.5234" y2="87.9746">
	<stop  offset="0" style="stop-color:#46A4BF"/>
	<stop  offset="1" style="stop-color:#65D1C0"/>
</linearGradient>
<path fill="url(#SVGID_4_)" d="M492.206,87.975c0-0.998,0.36-1.857,1.081-2.578s1.58-1.081,2.577-1.081
	c0.998,0,1.857,0.36,2.578,1.081s1.081,1.58,1.081,2.578c0,0.998-0.36,1.857-1.081,2.578s-1.58,1.081-2.578,1.081
	c-0.997,0-1.856-0.36-2.577-1.081S492.206,88.973,492.206,87.975z"/>
<path fill="#3D3D3D" d="M233.69,105.771c1.478-0.147,2.818-0.545,4.02-1.192c1.2-0.646,2.217-1.441,3.049-2.384
	s1.469-1.996,1.913-3.16c0.444-1.165,0.666-2.375,0.666-3.631c0-1.22-0.186-2.485-0.554-3.798c-0.37-1.312-1.026-2.495-1.968-3.548
	c-0.942-1.054-2.227-1.921-3.853-2.606c-1.627-0.684-3.696-1.025-6.209-1.025h-13.805v39.251h5.322V89.083h6.985
	c1.035,0,2.06,0.083,3.077,0.25c1.016,0.167,1.921,0.471,2.717,0.915c0.794,0.443,1.432,1.081,1.913,1.913
	c0.48,0.832,0.721,1.913,0.721,3.243s-0.241,2.412-0.721,3.243c-0.481,0.832-1.119,1.469-1.913,1.913
	c-0.795,0.444-1.701,0.749-2.717,0.915c-1.017,0.166-2.042,0.25-3.077,0.25h-1.05v4.663l9.976,17.292h6.653L233.69,105.771z"/>
</svg>
