<?xml version="1.0" encoding="utf-8"?>
<!-- Generator: Adobe Illustrator 19.0.0, SVG Export Plug-In . SVG Version: 6.00 Build 0)  -->
<svg version="1.1" id="Layer_1" xmlns="http://www.w3.org/2000/svg" xmlns:xlink="http://www.w3.org/1999/xlink" x="0px" y="0px"
	 viewBox="0 0 707.6 163.1" enable-background="new 0 0 707.6 163.1" xml:space="preserve">
<g>
	<g>
		
			<linearGradient id="SVGID_1_" gradientUnits="userSpaceOnUse" x1="36.5541" y1="230.1537" x2="196" y2="230.1537" gradientTransform="matrix(1 0 0 1 -16.9779 -147.9899)">
			<stop  offset="0" style="stop-color:#A63E63"/>
			<stop  offset="1" style="stop-color:#E96D6D"/>
		</linearGradient>
		<path fill="url(#SVGID_1_)" d="M87.5,17.6v20c23,1.7,41.2,21,41.2,44.5c0,24.6-20,44.7-44.7,44.7c-24.6,0-44.7-20-44.7-44.7
			c0-23.5,18.2-42.8,41.2-44.5V17.7c-34,1.8-61.1,30-61.1,64.5c0,35.6,29,64.6,64.6,64.6c35.6,0,64.6-29,64.6-64.6V37.5H179V17.6
			H87.5z"/>
	</g>
</g>
<linearGradient id="SVGID_2_" gradientUnits="userSpaceOnUse" x1="53.9132" y1="82.1637" x2="114.3502" y2="82.1637">
	<stop  offset="0" style="stop-color:#46A4BF"/>
	<stop  offset="1" style="stop-color:#65D1C0"/>
</linearGradient>
<path fill="url(#SVGID_2_)" d="M53.9,82.2c0-16.7,13.5-30.2,30.2-30.2c16.7,0,30.2,13.5,30.2,30.2c0,16.7-13.5,30.2-30.2,30.2
	C67.4,112.4,53.9,98.9,53.9,82.2z"/>
<g>
	<path fill="#3D3D3D" d="M284,84.6c0-4.4-0.4-8.2-0.4-11.4h7.6c0,2.6,0.2,5.3,0.2,7.9h0.2c2.2-4.7,8.1-9.2,16.1-9.2
		c10.4,0,13.7,5.9,15.2,9.2c3.5-5.7,7.9-9.2,15.2-9.2c13.8,0,18.3,7.7,18.3,20.2v29.3h-8V92.5c0-6.7-2.4-13.2-11.7-13.2
		c-6.8,0-12.5,5.6-12.5,14.2v27.8h-8V94.1c0-10.6-2.7-14.7-9.3-14.7c-10.4,0-14.9,7.5-14.9,18.5v23.5h-8V84.6z"/>
	<path fill="#3D3D3D" d="M371.8,84.6c0-4.4-0.4-8.2-0.4-11.4h7.6c0,2.6,0.2,5.3,0.2,7.9h0.2c2.2-4.7,8.1-9.2,16.1-9.2
		c12.7,0,18.3,8,18.3,19.7v29.8h-8V92.4c0-8-3.5-13.1-11-13.1c-10.4,0-14.9,7.5-14.9,18.5v23.5h-8V84.6z"/>
	<path fill="#3D3D3D" d="M429.8,73.2h8v48.2h-8V73.2z"/>
	<path fill="#3D3D3D" d="M504.1,56.5H480v64.9h-8.7V56.5h-24.1v-8h56.9V56.5z"/>
	<path fill="#3D3D3D" d="M503.4,84.6c0-4.4-0.4-8.2-0.4-11.4h7.6c0,2.6,0.2,5.3,0.2,7.9h0.2c2.2-4.7,8.1-9.2,16.1-9.2
		c1,0,2.2,0.1,3.3,0.5l-0.5,8.1c-1.3-0.4-2.9-0.6-4.3-0.6c-9.8,0-14.1,6.9-14.1,17.9v23.5h-8V84.6z"/>
	<path fill="#3D3D3D" d="M539,79.4c4.9-5,12.2-7.4,19.2-7.4c14.2,0,20.2,6.8,20.2,20.4V113c0,2.8,0.3,5.9,0.7,8.3h-7.7
		c-0.5-2.2-0.5-5.2-0.5-7.2h-0.2c-3.2,4.9-8.6,8.4-15.9,8.4c-9.8,0-17.9-4.9-17.9-14.3c0-16,18.5-16.9,30.4-16.9h3.1V90
		c0-7-4.4-10.6-11.9-10.6c-5.2,0-10.5,1.8-14.3,5.3L539,79.4z M562.3,98.2c-10.2,0-16.8,2.8-16.8,9.3c0,6.1,4.5,8.3,10.6,8.3
		c9.3,0,14-6.7,14.2-14.5v-3.1H562.3z"/>
	<path fill="#3D3D3D" d="M627.4,85.2c-3.4-4.1-7.3-5.9-12.2-5.9c-10.8,0-16.3,8-16.3,17.9c0,9.9,6.5,17.9,16.3,17.9
		c5.3,0,9.3-1.9,12.3-6l6,5.7c-4.6,5.4-11.2,7.7-18.2,7.7c-14.9,0-24.9-10.5-24.9-25.3c0-14.6,10.1-25.3,24.9-25.3
		c7.1,0,13.7,2.4,18.5,7.6L627.4,85.2z"/>
	<path fill="#3D3D3D" d="M642.8,43.5h8v50.9l21.9-21.2h11.4l-23.3,21.9l25.7,26.3h-11.8L650.8,96v25.3h-8V43.5z"/>
</g>
<path fill="#E96D6D" d="M433.8,45.1c3.8,0,6.8,3.1,6.8,6.8c0,3.9-2.9,6.8-6.8,6.8c-3.9,0-6.8-2.9-6.8-6.8
	C427,48.2,430,45.1,433.8,45.1z"/>
<path fill="#3D3D3D" d="M233.4,46.6c-22.1,0-38.1,16.3-38.1,38.3c0,20.5,13.9,36.1,33.7,38.1v-8.1c-14.7-2.1-24.4-14.7-24.4-30
	c0-16.8,11.7-30.3,28.8-30.3s28.8,13.5,28.8,30.3c0,15.3-9.7,27.8-24.4,30v8.1c19.8-2,33.7-17.6,33.7-38.1
	C271.5,62.9,255.6,46.6,233.4,46.6z"/>
</svg>
